<?xml version="1.0" encoding="utf-8"?>
<!-- Generator: Adobe Illustrator 26.2.1, SVG Export Plug-In . SVG Version: 6.00 Build 0)  -->
<svg version="1.1" id="Layer_1" xmlns="http://www.w3.org/2000/svg" xmlns:xlink="http://www.w3.org/1999/xlink" x="0px" y="0px"
	 viewBox="0 0 103.7 17.2" style="enable-background:new 0 0 103.7 17.2;" xml:space="preserve">
<style type="text/css">
	.st0{fill:#FFFFFF;}
</style>
<g>
	<path class="st0" d="M1.9,12.8V1.9h7.8v1.7H3.7v2.8h4.9v1.7H3.7v3h6.1v1.7H1.9z"/>
	<path class="st0" d="M10.7,10.3h1.8c0,0,0,0.1,0.1,0.1c0,0.1,0.1,0.1,0.2,0.3c0.1,0.1,0.2,0.3,0.3,0.4c0.1,0.1,0.3,0.2,0.6,0.3
		c0.2,0.1,0.5,0.1,0.8,0.1c0.6,0,1-0.1,1.2-0.3c0.3-0.2,0.4-0.4,0.4-0.7c0-0.2-0.2-0.4-0.5-0.6c-0.3-0.1-0.8-0.3-1.2-0.4
		c-0.5-0.1-1-0.2-1.5-0.4c-0.5-0.1-0.9-0.4-1.2-0.8c-0.3-0.4-0.5-0.8-0.5-1.4c0-0.6,0.3-1.2,0.9-1.6c0.6-0.5,1.3-0.7,2.3-0.7
		c0.6,0,1.1,0.1,1.6,0.3c0.5,0.2,0.8,0.4,1,0.6c0.2,0.2,0.4,0.5,0.6,0.7c0.1,0.2,0.2,0.5,0.3,0.6l0.1,0.2H16c0,0,0-0.1,0-0.1
		c0,0-0.1-0.1-0.2-0.2c-0.1-0.1-0.2-0.2-0.3-0.3c-0.1-0.1-0.3-0.2-0.5-0.2c-0.2-0.1-0.5-0.1-0.8-0.1c-0.5,0-0.8,0.1-1,0.2
		c-0.2,0.2-0.4,0.4-0.4,0.6c0,0.2,0.1,0.4,0.4,0.5c0.2,0.1,0.6,0.2,0.9,0.3c0.4,0.1,0.8,0.2,1.2,0.3c0.4,0.1,0.8,0.3,1.2,0.4
		c0.4,0.2,0.7,0.4,0.9,0.7c0.2,0.3,0.4,0.7,0.4,1.2c0,0.7-0.3,1.2-0.9,1.7c-0.6,0.5-1.4,0.7-2.4,0.7c-0.6,0-1.2-0.1-1.6-0.3
		c-0.5-0.2-0.8-0.4-1.1-0.7c-0.2-0.3-0.5-0.5-0.6-0.8c-0.2-0.3-0.3-0.5-0.3-0.7L10.7,10.3z"/>
	<path class="st0" d="M18.5,6.3V4.9h0.9V3.1h1.6v1.7h2.4v1.5h-2.4v5h2.5v1.5h-4.1V6.3H18.5z"/>
	<path class="st0" d="M25.7,11.7c-0.8-0.8-1.2-1.8-1.2-2.9c0-1.2,0.4-2.1,1.2-2.9c0.8-0.8,1.7-1.2,2.9-1.2c1.1,0,2.1,0.4,2.9,1.2
		c0.8,0.8,1.2,1.8,1.2,2.9v0.5h-6.4c0.1,0.6,0.4,1.2,0.8,1.5c0.4,0.4,1,0.6,1.6,0.6c0.5,0,0.9-0.1,1.3-0.3c0.4-0.2,0.6-0.4,0.8-0.6
		l0.2-0.3h1.7c0,0.1-0.1,0.2-0.1,0.3c-0.1,0.1-0.2,0.3-0.4,0.6c-0.2,0.3-0.5,0.6-0.7,0.8c-0.3,0.2-0.6,0.4-1.1,0.6
		c-0.5,0.2-1,0.3-1.6,0.3C27.4,12.9,26.5,12.5,25.7,11.7z M26.2,8h4.7c-0.1-0.5-0.3-0.9-0.7-1.3c-0.4-0.4-0.9-0.6-1.6-0.6
		c-0.6,0-1.1,0.2-1.5,0.5C26.6,7,26.3,7.5,26.2,8z"/>
	<path class="st0" d="M33.2,4.9h1.7l1.7,6.4h1l1.7-6.4H41l-2.2,7.9h-3.5L33.2,4.9z"/>
	<path class="st0" d="M42.8,11.7c-0.8-0.8-1.2-1.8-1.2-2.9c0-1.2,0.4-2.1,1.2-2.9c0.8-0.8,1.7-1.2,2.9-1.2c1.1,0,2.1,0.4,2.9,1.2
		c0.8,0.8,1.2,1.8,1.2,2.9v0.5h-6.4c0.1,0.6,0.4,1.2,0.8,1.5c0.4,0.4,1,0.6,1.6,0.6c0.5,0,0.9-0.1,1.3-0.3c0.4-0.2,0.6-0.4,0.8-0.6
		l0.2-0.3h1.7c0,0.1-0.1,0.2-0.1,0.3c-0.1,0.1-0.2,0.3-0.4,0.6c-0.2,0.3-0.5,0.6-0.7,0.8c-0.3,0.2-0.6,0.4-1.1,0.6
		c-0.5,0.2-1,0.3-1.6,0.3C44.6,12.9,43.6,12.5,42.8,11.7z M43.4,8H48c-0.1-0.5-0.3-0.9-0.7-1.3c-0.4-0.4-0.9-0.6-1.6-0.6
		c-0.6,0-1.1,0.2-1.5,0.5C43.8,7,43.5,7.5,43.4,8z"/>
	<path class="st0" d="M55.6,12.8V1.9h4.7c1.3,0,2.3,0.3,3.1,1c0.8,0.7,1.1,1.5,1.1,2.5c0,0.8-0.2,1.5-0.7,2.1
		c-0.5,0.6-1.2,1-2.1,1.3l2.7,4h-2.1l-2.6-3.9h-2.4v3.9H55.6z M57.4,7.2h3c1.6,0,2.3-0.6,2.3-1.8c0-1.2-0.8-1.8-2.3-1.8h-3V7.2z"/>
	<path class="st0" d="M66.9,11.7c-0.8-0.8-1.2-1.8-1.2-2.9c0-1.2,0.4-2.1,1.2-2.9c0.8-0.8,1.7-1.2,2.9-1.2c1.1,0,2.1,0.4,2.9,1.2
		c0.8,0.8,1.2,1.8,1.2,2.9v0.5h-6.4c0.1,0.6,0.4,1.2,0.8,1.5c0.4,0.4,1,0.6,1.6,0.6c0.5,0,0.9-0.1,1.3-0.3c0.4-0.2,0.6-0.4,0.8-0.6
		l0.2-0.3h1.7c0,0.1-0.1,0.2-0.1,0.3c-0.1,0.1-0.2,0.3-0.4,0.6c-0.2,0.3-0.5,0.6-0.7,0.8c-0.3,0.2-0.6,0.4-1.1,0.6
		c-0.5,0.2-1,0.3-1.6,0.3C68.6,12.9,67.7,12.5,66.9,11.7z M67.4,8h4.7c-0.1-0.5-0.3-0.9-0.7-1.3c-0.4-0.4-0.9-0.6-1.6-0.6
		c-0.6,0-1.1,0.2-1.5,0.5C67.8,7,67.6,7.5,67.4,8z"/>
	<path class="st0" d="M74.4,4.9h1.7l1.7,6.4h0.9l1.9-6.4h1.7L79,15.7h-1.7l0.9-3h-1.6L74.4,4.9z"/>
	<path class="st0" d="M83.8,11.7c-0.8-0.8-1.2-1.8-1.2-2.9c0-1.2,0.4-2.1,1.2-2.9c0.8-0.8,1.7-1.2,2.9-1.2c1.1,0,2.1,0.4,2.9,1.2
		c0.8,0.8,1.2,1.8,1.2,2.9v0.5h-6.4c0.1,0.6,0.4,1.2,0.8,1.5c0.4,0.4,1,0.6,1.6,0.6c0.5,0,0.9-0.1,1.3-0.3c0.4-0.2,0.6-0.4,0.8-0.6
		l0.2-0.3h1.7c0,0.1-0.1,0.2-0.1,0.3c-0.1,0.1-0.2,0.3-0.4,0.6c-0.2,0.3-0.5,0.6-0.7,0.8c-0.3,0.2-0.6,0.4-1.1,0.6
		c-0.5,0.2-1,0.3-1.6,0.3C85.6,12.9,84.6,12.5,83.8,11.7z M84.4,8H89c-0.1-0.5-0.3-0.9-0.7-1.3c-0.4-0.4-0.9-0.6-1.6-0.6
		c-0.6,0-1.1,0.2-1.5,0.5C84.8,7,84.5,7.5,84.4,8z"/>
	<path class="st0" d="M91.6,10.3h1.8c0,0,0,0.1,0.1,0.1c0,0.1,0.1,0.1,0.2,0.3c0.1,0.1,0.2,0.3,0.3,0.4c0.1,0.1,0.3,0.2,0.6,0.3
		c0.2,0.1,0.5,0.1,0.8,0.1c0.6,0,1-0.1,1.2-0.3c0.3-0.2,0.4-0.4,0.4-0.7c0-0.2-0.2-0.4-0.5-0.6c-0.3-0.1-0.8-0.3-1.2-0.4
		c-0.5-0.1-1-0.2-1.5-0.4c-0.5-0.1-0.9-0.4-1.2-0.8C92.2,8.1,92,7.6,92,7c0-0.6,0.3-1.2,0.9-1.6c0.6-0.5,1.3-0.7,2.3-0.7
		c0.6,0,1.1,0.1,1.6,0.3c0.5,0.2,0.8,0.4,1,0.6c0.2,0.2,0.4,0.5,0.6,0.7c0.1,0.2,0.2,0.5,0.3,0.6l0.1,0.2h-1.7c0,0,0-0.1,0-0.1
		c0,0-0.1-0.1-0.2-0.2c-0.1-0.1-0.2-0.2-0.3-0.3c-0.1-0.1-0.3-0.2-0.5-0.2c-0.2-0.1-0.5-0.1-0.8-0.1c-0.5,0-0.8,0.1-1,0.2
		c-0.2,0.2-0.4,0.4-0.4,0.6c0,0.2,0.1,0.4,0.4,0.5c0.2,0.1,0.6,0.2,0.9,0.3c0.4,0.1,0.8,0.2,1.2,0.3c0.4,0.1,0.8,0.3,1.2,0.4
		c0.4,0.2,0.7,0.4,0.9,0.7c0.2,0.3,0.4,0.7,0.4,1.2c0,0.7-0.3,1.2-0.9,1.7c-0.6,0.5-1.4,0.7-2.4,0.7c-0.6,0-1.2-0.1-1.6-0.3
		c-0.5-0.2-0.8-0.4-1.1-0.7c-0.2-0.3-0.5-0.5-0.6-0.8c-0.2-0.3-0.3-0.5-0.3-0.7L91.6,10.3z"/>
	<path class="st0" d="M100.1,12.7c-0.2-0.2-0.3-0.5-0.3-0.8c0-0.3,0.1-0.6,0.3-0.8c0.2-0.2,0.5-0.3,0.8-0.3c0.3,0,0.6,0.1,0.8,0.3
		c0.2,0.2,0.3,0.5,0.3,0.8c0,0.3-0.1,0.6-0.3,0.8c-0.2,0.2-0.5,0.3-0.8,0.3C100.5,13,100.3,12.9,100.1,12.7z"/>
</g>
</svg>
