<?xml version="1.0" encoding="utf-8"?>
<!-- Generator: Adobe Illustrator 26.2.1, SVG Export Plug-In . SVG Version: 6.00 Build 0)  -->
<svg version="1.1" id="Layer_1" xmlns="http://www.w3.org/2000/svg" xmlns:xlink="http://www.w3.org/1999/xlink" x="0px" y="0px"
	 viewBox="0 0 365.9 68.6" style="enable-background:new 0 0 365.9 68.6;" xml:space="preserve">
<g>
	<path d="M9.9,48.2V10.6H37v5.9h-21v9.7H33v5.9H16.1v10.2h21v5.9H9.9z"/>
	<path d="M40.3,39.6h6.2c0,0.1,0.1,0.3,0.2,0.4c0.1,0.2,0.3,0.5,0.6,1c0.3,0.5,0.7,0.9,1.2,1.2c0.4,0.4,1.1,0.7,1.9,1
		c0.8,0.3,1.8,0.4,2.8,0.4c2,0,3.4-0.3,4.3-0.9c0.9-0.6,1.3-1.4,1.3-2.3c0-0.9-0.6-1.5-1.8-2c-1.2-0.5-2.6-0.9-4.3-1.2
		c-1.7-0.3-3.4-0.7-5.1-1.3c-1.7-0.5-3.1-1.4-4.3-2.7c-1.2-1.3-1.8-2.9-1.8-4.9c0-2.2,1-4,3-5.6c2-1.6,4.6-2.4,7.8-2.4
		c2,0,3.8,0.3,5.4,0.9c1.6,0.6,2.8,1.3,3.5,2.2c0.8,0.8,1.4,1.7,2,2.5c0.5,0.8,0.9,1.6,1,2.2l0.2,0.9h-5.9c0-0.1-0.1-0.2-0.2-0.4
		c-0.1-0.1-0.3-0.4-0.6-0.8c-0.3-0.4-0.7-0.8-1.1-1.1c-0.4-0.3-1-0.6-1.8-0.8c-0.8-0.3-1.6-0.4-2.6-0.4c-1.6,0-2.8,0.3-3.6,0.9
		c-0.8,0.6-1.2,1.3-1.2,2.2c0,0.7,0.4,1.3,1.3,1.8c0.8,0.5,1.9,0.8,3.2,1c1.3,0.2,2.7,0.5,4.1,0.9c1.5,0.4,2.8,0.9,4.1,1.4
		c1.3,0.5,2.4,1.4,3.2,2.6c0.8,1.2,1.3,2.6,1.3,4.3c0,2.3-1,4.3-3.1,5.9c-2.1,1.6-4.9,2.4-8.5,2.4c-2.1,0-4-0.3-5.7-0.9
		c-1.7-0.6-2.9-1.4-3.8-2.3c-0.9-0.9-1.6-1.8-2.1-2.7c-0.6-0.9-0.9-1.6-1-2.3L40.3,39.6z"/>
	<path d="M67.4,25.9v-5.1h3.2v-5.9h5.6v5.9h8.3v5.1h-8.3v17.2h8.6v5.1H70.6V25.9H67.4z"/>
	<path d="M92.2,44.6c-2.7-2.7-4.1-6.1-4.1-10.1c0-4,1.4-7.4,4.1-10.1c2.7-2.7,6-4.1,9.9-4.1c3.9,0,7.2,1.4,9.9,4.1
		c2.7,2.7,4.1,6.1,4.1,10.1v1.9H93.8c0.4,2.2,1.4,4,2.9,5.3c1.5,1.3,3.4,2,5.4,2c1.7,0,3.2-0.3,4.5-0.9c1.3-0.6,2.2-1.3,2.6-1.9
		l0.7-0.9h5.9c-0.1,0.3-0.2,0.6-0.4,1c-0.2,0.4-0.6,1.1-1.4,2.1c-0.7,1-1.6,1.9-2.5,2.7c-0.9,0.8-2.2,1.5-3.9,2.1
		c-1.7,0.6-3.5,1-5.5,1C98.2,48.8,94.9,47.4,92.2,44.6z M94,31.8h16.1c-0.3-1.8-1.1-3.3-2.6-4.5c-1.4-1.3-3.3-1.9-5.5-1.9
		c-1.9,0-3.7,0.6-5.2,1.7C95.4,28.3,94.4,29.8,94,31.8z"/>
	<path d="M118.2,20.8h5.9l5.9,22.3h3.5l5.9-22.3h5.9l-7.5,27.4h-12.1L118.2,20.8z"/>
	<path d="M151.6,44.6c-2.7-2.7-4.1-6.1-4.1-10.1c0-4,1.4-7.4,4.1-10.1c2.7-2.7,6-4.1,9.9-4.1c3.9,0,7.2,1.4,9.9,4.1
		c2.7,2.7,4.1,6.1,4.1,10.1v1.9h-22.3c0.4,2.2,1.4,4,2.9,5.3c1.5,1.3,3.4,2,5.4,2c1.7,0,3.2-0.3,4.5-0.9c1.3-0.6,2.2-1.3,2.6-1.9
		l0.7-0.9h5.9c-0.1,0.3-0.2,0.6-0.4,1c-0.2,0.4-0.6,1.1-1.4,2.1c-0.7,1-1.6,1.9-2.5,2.7c-0.9,0.8-2.2,1.5-3.9,2.1
		c-1.7,0.6-3.5,1-5.5,1C157.6,48.8,154.3,47.4,151.6,44.6z M153.4,31.8h16.1c-0.3-1.8-1.1-3.3-2.6-4.5c-1.4-1.3-3.3-1.9-5.5-1.9
		c-1.9,0-3.7,0.6-5.2,1.7C154.8,28.3,153.8,29.8,153.4,31.8z"/>
	<path d="M195.9,48.2V10.6h16.4c4.4,0,8,1.1,10.6,3.4c2.6,2.3,3.9,5.2,3.9,8.7c0,2.7-0.9,5.1-2.6,7.2c-1.7,2.1-4.1,3.5-7.1,4.3
		l9.4,14h-7.3l-8.9-13.4h-8.3v13.4H195.9z M202.1,28.9h10.2c5.4,0,8.1-2.1,8.1-6.2c0-4.1-2.7-6.2-8.1-6.2h-10.2V28.9z"/>
	<path d="M234.9,44.6c-2.7-2.7-4.1-6.1-4.1-10.1c0-4,1.4-7.4,4.1-10.1c2.7-2.7,6-4.1,9.9-4.1c3.9,0,7.2,1.4,9.9,4.1
		c2.7,2.7,4.1,6.1,4.1,10.1v1.9h-22.3c0.4,2.2,1.4,4,2.9,5.3c1.5,1.3,3.4,2,5.4,2c1.7,0,3.2-0.3,4.5-0.9c1.3-0.6,2.2-1.3,2.6-1.9
		l0.7-0.9h5.9c-0.1,0.3-0.2,0.6-0.4,1c-0.2,0.4-0.6,1.1-1.4,2.1c-0.7,1-1.6,1.9-2.5,2.7c-0.9,0.8-2.2,1.5-3.9,2.1
		c-1.7,0.6-3.5,1-5.5,1C240.9,48.8,237.6,47.4,234.9,44.6z M236.8,31.8h16.1c-0.3-1.8-1.1-3.3-2.6-4.5c-1.4-1.3-3.3-1.9-5.5-1.9
		c-1.9,0-3.7,0.6-5.2,1.7C238.1,28.3,237.2,29.8,236.8,31.8z"/>
	<path d="M261,20.8h5.9l5.9,22h3l6.5-22h5.9l-11.3,37.6h-5.9l3.2-10.2h-5.6L261,20.8z"/>
	<path d="M293.5,44.6c-2.7-2.7-4.1-6.1-4.1-10.1c0-4,1.4-7.4,4.1-10.1c2.7-2.7,6-4.1,9.9-4.1c3.9,0,7.2,1.4,9.9,4.1
		c2.7,2.7,4.1,6.1,4.1,10.1v1.9h-22.3c0.4,2.2,1.4,4,2.9,5.3c1.5,1.3,3.4,2,5.4,2c1.7,0,3.2-0.3,4.5-0.9c1.3-0.6,2.2-1.3,2.6-1.9
		l0.7-0.9h5.9c-0.1,0.3-0.2,0.6-0.4,1c-0.2,0.4-0.6,1.1-1.4,2.1c-0.7,1-1.6,1.9-2.5,2.7c-0.9,0.8-2.2,1.5-3.9,2.1
		c-1.7,0.6-3.5,1-5.5,1C299.5,48.8,296.2,47.4,293.5,44.6z M295.4,31.8h16.1c-0.3-1.8-1.1-3.3-2.6-4.5c-1.4-1.3-3.3-1.9-5.5-1.9
		c-1.9,0-3.7,0.6-5.2,1.7C296.7,28.3,295.8,29.8,295.4,31.8z"/>
	<path d="M320.4,39.6h6.2c0,0.1,0.1,0.3,0.2,0.4c0.1,0.2,0.3,0.5,0.6,1c0.3,0.5,0.7,0.9,1.2,1.2c0.4,0.4,1.1,0.7,1.9,1
		c0.8,0.3,1.8,0.4,2.8,0.4c2,0,3.4-0.3,4.3-0.9c0.9-0.6,1.3-1.4,1.3-2.3c0-0.9-0.6-1.5-1.8-2c-1.2-0.5-2.6-0.9-4.3-1.2
		c-1.7-0.3-3.4-0.7-5.1-1.3c-1.7-0.5-3.1-1.4-4.3-2.7c-1.2-1.3-1.8-2.9-1.8-4.9c0-2.2,1-4,3-5.6c2-1.6,4.6-2.4,7.8-2.4
		c2,0,3.8,0.3,5.4,0.9c1.6,0.6,2.8,1.3,3.5,2.2c0.8,0.8,1.4,1.7,2,2.5c0.5,0.8,0.9,1.6,1,2.2l0.2,0.9h-5.9c0-0.1-0.1-0.2-0.2-0.4
		c-0.1-0.1-0.3-0.4-0.6-0.8c-0.3-0.4-0.7-0.8-1.1-1.1c-0.4-0.3-1-0.6-1.8-0.8c-0.8-0.3-1.6-0.4-2.6-0.4c-1.6,0-2.8,0.3-3.6,0.9
		c-0.8,0.6-1.2,1.3-1.2,2.2c0,0.7,0.4,1.3,1.3,1.8c0.8,0.5,1.9,0.8,3.2,1c1.3,0.2,2.7,0.5,4.1,0.9c1.5,0.4,2.8,0.9,4.1,1.4
		c1.3,0.5,2.4,1.4,3.2,2.6c0.8,1.2,1.3,2.6,1.3,4.3c0,2.3-1,4.3-3.1,5.9c-2.1,1.6-4.9,2.4-8.5,2.4c-2.1,0-4-0.3-5.7-0.9
		c-1.7-0.6-2.9-1.4-3.8-2.3c-0.9-0.9-1.6-1.8-2.1-2.7c-0.6-0.9-0.9-1.6-1-2.3L320.4,39.6z"/>
	<path d="M349.7,47.9c-0.7-0.7-1.1-1.6-1.1-2.7c0-1.1,0.4-2,1.1-2.7c0.7-0.7,1.6-1.1,2.7-1.1c1.1,0,2,0.4,2.7,1.1
		c0.7,0.7,1.1,1.6,1.1,2.7c0,1.1-0.4,2-1.1,2.7c-0.7,0.7-1.6,1.1-2.7,1.1C351.3,49,350.4,48.7,349.7,47.9z"/>
</g>
</svg>
